# xmcd CD database file
#
# Track frame offsets:
#	150
#	26833
#	48577
#	90905
#	124295
#	150592
#	191237
#	210976
#	251691
#
# Disc length: 3496 seconds
#
# Revision: 0
# Processed by: cddbd v1.5.1PL0 Copyright (c) Steve Scherf et al.
# Submitted via: CDex 1.51
#
DISCID=760da609
DTITLE=Masabumi Kikuchi - Chansons d'Edith Piaf
DYEAR=1999
DGENRE=Jazz
TTITLE0=L'accordeoniste
TTITLE1=Que Nadie Sepa Mi Sufrir
TTITLE2=Fais Comme Si
TTITLE3=Sous Le Ciel De Paris
TTITLE4=Le Petit Monsieur Triste
TTITLE5=La Vie En Rose
TTITLE6=Bravo Pour Le Clown
TTITLE7=L'homme De Berlin
TTITLE8=Les Mots D'amor
EXTD=YEAR: 1999
EXTT0=
EXTT1=
EXTT2=
EXTT3=
EXTT4=
EXTT5=
EXTT6=
EXTT7=
EXTT8=
PLAYORDER=
